# Blender v2.74 (sub 0) OBJ File: 'window.blend'
# www.blender.org
mtllib window.mtl
o model
v -0.016364 -0.255454 0.258636
v -0.016364 0.264546 0.258636
v -0.016364 0.264546 0.228636
v -0.016364 -0.255454 0.228636
v 0.013636 0.264546 0.228636
v 0.013636 0.264546 0.258636
v 0.013636 -0.255454 0.258636
v 0.013636 -0.255454 0.228636
v -0.016364 -0.250454 0.258636
v -0.016364 -0.250454 -0.261364
v -0.016364 -0.280454 -0.261364
v -0.016364 -0.280454 0.258636
v 0.013636 -0.280454 -0.261364
v 0.013636 -0.250454 -0.261364
v 0.013636 -0.250454 0.258636
v 0.013636 -0.280454 0.258636
v -0.016364 0.279545 0.258636
v -0.016364 0.279545 -0.261364
v -0.016364 0.249546 -0.261364
v -0.016364 0.249545 0.258636
v 0.013636 0.249546 -0.261364
v 0.013636 0.279545 -0.261364
v 0.013636 0.279545 0.258636
v 0.013636 0.249545 0.258636
v 0.013636 -0.270455 -0.261364
v 0.013636 0.279545 -0.261364
v 0.013636 0.279545 -0.231364
v 0.013636 -0.270455 -0.231364
v -0.016364 0.279545 -0.231364
v -0.016364 0.279545 -0.261364
v -0.016364 -0.270455 -0.261364
v -0.016364 -0.270455 -0.231364
v 0.023636 0.259546 0.278636
v 0.023636 0.299545 0.278636
v -0.026364 0.299545 0.278636
v -0.026364 0.259546 0.278636
v -0.026364 0.299546 -0.271364
v 0.023636 0.299546 -0.271364
v 0.023636 0.259546 -0.271364
v -0.026364 0.259546 -0.271364
v 0.023636 -0.300455 0.278636
v 0.023636 0.269545 0.278636
v -0.026364 0.269545 0.278636
v -0.026364 -0.300455 0.278636
v -0.026364 0.269545 0.238636
v 0.023636 0.269545 0.238636
v 0.023636 -0.300455 0.238636
v -0.026364 -0.300455 0.238636
v 0.023636 -0.300455 0.278636
v 0.023636 -0.260455 0.278636
v -0.026364 -0.260455 0.278636
v -0.026364 -0.300455 0.278636
v -0.026363 -0.260454 -0.271364
v 0.023637 -0.260454 -0.271364
v 0.023637 -0.300454 -0.271364
v -0.026363 -0.300454 -0.271364
v 0.023636 -0.300454 -0.281364
v 0.023636 0.299545 -0.281364
v 0.023636 0.299545 -0.241364
v 0.023636 -0.300454 -0.241364
v -0.026364 0.299545 -0.241364
v -0.026364 0.299545 -0.281364
v -0.026364 -0.300454 -0.281364
v -0.026364 -0.300454 -0.241364
vn -1.000000 0.000000 0.000000
vn 1.000000 0.000000 0.000000
vn 0.000000 -0.000000 -1.000000
vn 0.000000 0.000000 1.000000
vn 0.000000 -1.000000 0.000000
vn 0.000000 1.000000 0.000000
usemtl mat20
s 1
f 1//1 2//1 3//1 4//1
f 5//2 6//2 7//2 8//2
f 3//3 5//3 8//3 4//3
f 7//4 6//4 2//4 1//4
f 8//5 7//5 1//5 4//5
f 2//6 6//6 5//6 3//6
f 9//1 10//1 11//1 12//1
f 13//2 14//2 15//2 16//2
f 11//5 13//5 16//5 12//5
f 15//6 14//6 10//6 9//6
f 16//4 15//4 9//4 12//4
f 10//3 14//3 13//3 11//3
f 17//1 18//1 19//1 20//1
f 21//2 22//2 23//2 24//2
f 19//5 21//5 24//5 20//5
f 23//6 22//6 18//6 17//6
f 24//4 23//4 17//4 20//4
f 18//3 22//3 21//3 19//3
f 25//2 26//2 27//2 28//2
f 29//1 30//1 31//1 32//1
f 27//4 29//4 32//4 28//4
f 31//3 30//3 26//3 25//3
f 32//5 31//5 25//5 28//5
f 26//6 30//6 29//6 27//6
f 33//4 34//4 35//4 36//4
f 37//3 38//3 39//3 40//3
f 35//1 37//1 40//1 36//1
f 39//2 38//2 34//2 33//2
f 40//5 39//5 33//5 36//5
f 34//6 38//6 37//6 35//6
f 41//4 42//4 43//4 44//4
f 45//3 46//3 47//3 48//3
f 43//1 45//1 48//1 44//1
f 47//2 46//2 42//2 41//2
f 48//5 47//5 41//5 44//5
f 42//6 46//6 45//6 43//6
f 49//4 50//4 51//4 52//4
f 53//3 54//3 55//3 56//3
f 51//1 53//1 56//1 52//1
f 55//2 54//2 50//2 49//2
f 56//5 55//5 49//5 52//5
f 50//6 54//6 53//6 51//6
f 57//2 58//2 59//2 60//2
f 61//1 62//1 63//1 64//1
f 59//4 61//4 64//4 60//4
f 63//3 62//3 58//3 57//3
f 64//5 63//5 57//5 60//5
f 58//6 62//6 61//6 59//6
